<svg width="20px" height="23px" viewBox="0 0 92 107" version="1.1" xmlns="http://www.w3.org/2000/svg">
    <g id="delete" fill="#ffffff" fill-rule="nonzero">
        <path d="M91.833,30.5 C91.833,34.643 88.476,38 84.333,38 L82,38 L82,89.345 C82,99.06 74.736,107 65.022,107 L27.644,107 C17.93,107 10,99.06 10,89.345 L10,38 L8.333,38 C4.19,38 0.833,34.643 0.833,30.5 C0.833,26.357 4.19,23 8.333,23 L23,23 L23,14.138 C23,6.103 29.897,0 37.933,0 L54.734,0 C62.77,0 69,6.103 69,14.138 L69,23 L84.333,23 C88.476,23 91.833,26.357 91.833,30.5 Z M38,15 L38,23 L54,23 L54,15 L38,15 Z"></path>
    </g>
</svg>